<?xml version="1.0" encoding="UTF-8"?>
<!DOCTYPE svg PUBLIC "-//W3C//DTD SVG 1.1//EN" "http://www.w3.org/Graphics/SVG/1.1/DTD/svg11.dtd">
<svg xmlns="http://www.w3.org/2000/svg" version="1.1" width="512px" height="512px" style="shape-rendering:geometricPrecision; text-rendering:geometricPrecision; image-rendering:optimizeQuality; fill-rule:evenodd; clip-rule:evenodd" xmlns:xlink="http://www.w3.org/1999/xlink">
<g><path style="opacity:0.993" fill="#555858" d="M 458.5,54.5 C 471.948,58.7806 479.281,67.9473 480.5,82C 475.821,108.893 470.821,135.727 465.5,162.5C 451.167,162.5 436.833,162.5 422.5,162.5C 416.786,135.932 411.453,109.266 406.5,82.5C 407.54,68.2343 414.873,59.0677 428.5,55C 438.494,54.5002 448.494,54.3335 458.5,54.5 Z"/></g>
<g><path style="opacity:0.986" fill="#404242" d="M 458.5,54.5 C 469.172,54.3335 479.839,54.5002 490.5,55C 501.357,58.0249 508.357,64.8583 511.5,75.5C 511.5,80.5 511.5,85.5 511.5,90.5C 506.265,114.335 501.265,138.335 496.5,162.5C 487.167,162.5 477.833,162.5 468.5,162.5C 467.5,162.5 466.5,162.5 465.5,162.5C 470.821,135.727 475.821,108.893 480.5,82C 479.281,67.9473 471.948,58.7806 458.5,54.5 Z"/></g>
<g><path style="opacity:0.992" fill="#fcc023" d="M 187.5,146.5 C 195.954,149.779 202.454,155.445 207,163.5C 212.982,175.429 216.149,188.096 216.5,201.5C 207.008,179.943 191.342,173.776 169.5,183C 154.069,195.307 151.236,210.141 161,227.5C 172.306,240.201 185.806,243.034 201.5,236C 209.335,231.133 214.335,224.3 216.5,215.5C 216.5,249.5 216.5,283.5 216.5,317.5C 185.329,317.831 154.329,317.498 123.5,316.5C 123.5,286.167 123.5,255.833 123.5,225.5C 124.268,214.89 124.935,204.223 125.5,193.5C 135.166,163.52 155.832,147.853 187.5,146.5 Z"/></g>
<g><path style="opacity:0.996" fill="#fca13e" d="M 187.5,146.5 C 217.58,149.261 237.247,164.927 246.5,193.5C 247.093,204.218 247.76,214.885 248.5,225.5C 248.5,255.833 248.5,286.167 248.5,316.5C 238.167,316.5 227.833,316.5 217.5,316.5C 217.832,279.33 217.498,242.33 216.5,205.5C 216.5,204.167 216.5,202.833 216.5,201.5C 216.149,188.096 212.982,175.429 207,163.5C 202.454,155.445 195.954,149.779 187.5,146.5 Z"/></g>
<g><path style="opacity:0.977" fill="#fcbf23" d="M 49.5,162.5 C 60.6051,167.31 63.7718,175.31 59,186.5C 56.471,189.885 53.3044,192.218 49.5,193.5C 47.901,193.232 46.5676,193.566 45.5,194.5C 30.8791,190.924 26.7125,182.257 33,168.5C 37.2916,163.274 42.7916,161.274 49.5,162.5 Z"/></g>
<g><path style="opacity:0.98" fill="#fda13e" d="M 49.5,162.5 C 60.1719,162.333 70.8385,162.5 81.5,163C 92.4468,168.168 95.2801,176.335 90,187.5C 87.9373,189.734 85.7706,191.734 83.5,193.5C 72.1667,193.5 60.8333,193.5 49.5,193.5C 53.3044,192.218 56.471,189.885 59,186.5C 63.7718,175.31 60.6051,167.31 49.5,162.5 Z"/></g>
<g><path style="opacity:0.975" fill="#fcc023" d="M 298.5,162.5 C 310.717,167.96 313.55,176.627 307,188.5C 304.469,190.903 301.636,192.57 298.5,193.5C 295.167,193.5 291.833,193.5 288.5,193.5C 280.725,188.603 277.891,181.603 280,172.5C 283.612,164.609 289.778,161.275 298.5,162.5 Z"/></g>
<g><path style="opacity:0.979" fill="#fda13e" d="M 298.5,162.5 C 309.505,162.333 320.505,162.5 331.5,163C 341.431,168.377 344.264,176.21 340,186.5C 337.931,189.406 335.431,191.739 332.5,193.5C 321.167,193.5 309.833,193.5 298.5,193.5C 301.636,192.57 304.469,190.903 307,188.5C 313.55,176.627 310.717,167.96 298.5,162.5 Z"/></g>
<g><path style="opacity:0.993" fill="#6e6f6e" d="M 422.5,162.5 C 436.833,162.5 451.167,162.5 465.5,162.5C 466.5,162.5 467.5,162.5 468.5,162.5C 480.739,167.997 483.573,176.664 477,188.5C 474.574,190.452 472.074,192.119 469.5,193.5C 454.167,193.5 438.833,193.5 423.5,193.5C 421.167,193.5 418.833,193.5 416.5,193.5C 406.805,187.21 404.638,178.876 410,168.5C 413.213,164.476 417.38,162.476 422.5,162.5 Z"/></g>
<g><path style="opacity:0.985" fill="#555858" d="M 468.5,162.5 C 477.833,162.5 487.167,162.5 496.5,162.5C 503.66,162.669 508.66,166.003 511.5,172.5C 511.5,176.5 511.5,180.5 511.5,184.5C 508.112,190.216 503.112,193.55 496.5,194.5C 487.682,193.507 478.682,193.173 469.5,193.5C 472.074,192.119 474.574,190.452 477,188.5C 483.573,176.664 480.739,167.997 468.5,162.5 Z"/></g>
<g><path style="opacity:1" fill="#fff6b8" d="M 216.5,201.5 C 216.5,202.833 216.5,204.167 216.5,205.5C 216.5,208.833 216.5,212.167 216.5,215.5C 214.335,224.3 209.335,231.133 201.5,236C 185.806,243.034 172.306,240.201 161,227.5C 151.236,210.141 154.069,195.307 169.5,183C 191.342,173.776 207.008,179.943 216.5,201.5 Z"/></g>
<g><path style="opacity:0.996" fill="#feef49" d="M 49.5,193.5 C 60.8333,193.5 72.1667,193.5 83.5,193.5C 97.5,193.5 111.5,193.5 125.5,193.5C 124.935,204.223 124.268,214.89 123.5,225.5C 108.167,225.5 92.8333,225.5 77.5,225.5C 67.0131,224.506 56.3464,224.172 45.5,224.5C 45.5,214.5 45.5,204.5 45.5,194.5C 46.5676,193.566 47.901,193.232 49.5,193.5 Z"/></g>
<g><path style="opacity:0.996" fill="#feef49" d="M 246.5,193.5 C 260.5,193.5 274.5,193.5 288.5,193.5C 291.833,193.5 295.167,193.5 298.5,193.5C 309.833,193.5 321.167,193.5 332.5,193.5C 360.5,193.5 388.5,193.5 416.5,193.5C 418.833,193.5 421.167,193.5 423.5,193.5C 437.323,194.496 451.323,194.829 465.5,194.5C 465.5,204.833 465.5,215.167 465.5,225.5C 419.167,225.5 372.833,225.5 326.5,225.5C 315.833,224.167 305.167,224.167 294.5,225.5C 279.167,225.5 263.833,225.5 248.5,225.5C 247.76,214.885 247.093,204.218 246.5,193.5 Z"/></g>
<g><path style="opacity:0.986" fill="#fad52c" d="M 423.5,193.5 C 438.833,193.5 454.167,193.5 469.5,193.5C 478.682,193.173 487.682,193.507 496.5,194.5C 496.666,203.173 496.5,211.84 496,220.5C 494.622,223.108 492.455,224.608 489.5,225C 481.507,225.5 473.507,225.666 465.5,225.5C 465.5,215.167 465.5,204.833 465.5,194.5C 451.323,194.829 437.323,194.496 423.5,193.5 Z"/></g>
<g><path style="opacity:1" fill="#fcc127" d="M 182.5,201.5 C 190.709,200.872 194.209,204.539 193,212.5C 188.239,217.812 183.572,217.812 179,212.5C 177.662,207.96 178.829,204.293 182.5,201.5 Z"/></g>
<g><path style="opacity:1" fill="#fdae39" d="M 216.5,205.5 C 217.498,242.33 217.832,279.33 217.5,316.5C 227.833,316.5 238.167,316.5 248.5,316.5C 238.013,317.494 227.346,317.828 216.5,317.5C 216.5,283.5 216.5,249.5 216.5,215.5C 216.5,212.167 216.5,208.833 216.5,205.5 Z"/></g>
<g><path style="opacity:0.964" fill="#fbc023" d="M 45.5,224.5 C 56.3464,224.172 67.0131,224.506 77.5,225.5C 77.9432,234.608 77.4432,243.608 76,252.5C 75.1667,253.333 74.3333,254.167 73.5,255C 65.5,255.667 57.5,255.667 49.5,255C 48.3333,253.833 47.1667,252.667 46,251.5C 45.5002,242.506 45.3336,233.506 45.5,224.5 Z"/></g>
<g><path style="opacity:0.963" fill="#fbc023" d="M 326.5,225.5 C 326.666,234.173 326.5,242.84 326,251.5C 324.833,252.667 323.667,253.833 322.5,255C 314.5,255.667 306.5,255.667 298.5,255C 297.667,254.167 296.833,253.333 296,252.5C 294.557,243.608 294.057,234.608 294.5,225.5C 305.167,224.167 315.833,224.167 326.5,225.5 Z"/></g>
<g><path style="opacity:0.976" fill="#fcc023" d="M 61.5,285.5 C 61.5,296.167 61.5,306.833 61.5,317.5C 50.8333,317.5 40.1667,317.5 29.5,317.5C 29.0828,308.085 29.5828,298.752 31,289.5C 32.5577,287.232 34.7244,286.066 37.5,286C 45.4931,285.5 53.4931,285.334 61.5,285.5 Z"/></g>
<g><path style="opacity:0.988" fill="#fda13f" d="M 61.5,285.5 C 69.5069,285.334 77.5069,285.5 85.5,286C 88.4944,286.406 90.661,287.906 92,290.5C 92.4998,299.16 92.6664,307.827 92.5,316.5C 82.3468,317.494 72.0135,317.828 61.5,317.5C 61.5,306.833 61.5,296.167 61.5,285.5 Z"/></g>
<g><path style="opacity:0.989" fill="#fcc023" d="M 310.5,285.5 C 310.5,296.167 310.5,306.833 310.5,317.5C 299.986,317.828 289.653,317.494 279.5,316.5C 279.055,307.06 279.555,297.726 281,288.5C 282.648,287.283 284.481,286.45 286.5,286C 294.493,285.5 302.493,285.334 310.5,285.5 Z"/></g>
<g><path style="opacity:0.997" fill="#fda13e" d="M 310.5,285.5 C 319.9,285.114 329.234,285.614 338.5,287C 340.768,288.558 341.934,290.724 342,293.5C 342.5,301.159 342.666,308.826 342.5,316.5C 331.915,317.476 321.248,317.809 310.5,317.5C 310.5,306.833 310.5,296.167 310.5,285.5 Z"/></g>
<g><path style="opacity:0.989" fill="#fdee4a" d="M 92.5,316.5 C 102.833,316.5 113.167,316.5 123.5,316.5C 154.329,317.498 185.329,317.831 216.5,317.5C 227.346,317.828 238.013,317.494 248.5,316.5C 258.833,316.5 269.167,316.5 279.5,316.5C 289.653,317.494 299.986,317.828 310.5,317.5C 321.248,317.809 331.915,317.476 342.5,316.5C 378.167,316.5 413.833,316.5 449.5,316.5C 449.5,326.833 449.5,337.167 449.5,347.5C 459.833,347.5 470.167,347.5 480.5,347.5C 480.5,347.833 480.5,348.167 480.5,348.5C 330.097,348.832 179.763,348.498 29.5,347.5C 29.5,337.5 29.5,327.5 29.5,317.5C 40.1667,317.5 50.8333,317.5 61.5,317.5C 72.0135,317.828 82.3468,317.494 92.5,316.5 Z"/></g>
<g><path style="opacity:0.974" fill="#fcd72b" d="M 449.5,316.5 C 458.915,316.083 468.248,316.583 477.5,318C 479.487,319.319 480.654,321.152 481,323.5C 481.5,331.493 481.666,339.493 481.5,347.5C 481.167,347.5 480.833,347.5 480.5,347.5C 470.167,347.5 459.833,347.5 449.5,347.5C 449.5,337.167 449.5,326.833 449.5,316.5 Z"/></g>
<g><path style="opacity:0.998" fill="#565959" d="M 29.5,347.5 C 179.763,348.498 330.097,348.832 480.5,348.5C 480.5,384.5 480.5,420.5 480.5,456.5C 321.5,456.667 162.5,456.5 3.5,456C 1.64977,455.31 0.316435,454.144 -0.5,452.5C -0.5,418.833 -0.5,385.167 -0.5,351.5C 1.01027,350.164 2.67694,348.997 4.5,348C 12.8267,347.5 21.16,347.334 29.5,347.5 Z"/></g>
<g><path style="opacity:0.991" fill="#404242" d="M 480.5,347.5 C 480.833,347.5 481.167,347.5 481.5,347.5C 489.84,347.334 498.173,347.5 506.5,348C 508.323,348.997 509.99,350.164 511.5,351.5C 511.5,385.167 511.5,418.833 511.5,452.5C 510.684,454.144 509.35,455.31 507.5,456C 498.506,456.5 489.506,456.666 480.5,456.5C 480.5,420.5 480.5,384.5 480.5,348.5C 480.5,348.167 480.5,347.833 480.5,347.5 Z"/></g>
</svg>
